<svg xmlns="http://www.w3.org/2000/svg" width="400" height="150" viewBox="0 0 400 150" role="img" aria-label="Websites">
  <defs>
    <pattern id="h" width="12" height="12" patternUnits="userSpaceOnUse" patternTransform="rotate(135)">
      <line x1="0" y1="0" x2="0" y2="12" stroke="#F1ECE2" stroke-opacity=".07" stroke-width="1"/>
    </pattern>
    <radialGradient id="g" cx="74%" cy="6%" r="78%">
      <stop offset="0" stop-color="#FF3D23" stop-opacity=".26"/>
      <stop offset="1" stop-color="#FF3D23" stop-opacity="0"/>
    </radialGradient>
  </defs>
  <rect width="400" height="150" fill="#15130E"/>
  <rect width="400" height="150" fill="url(#h)"/>
  <rect width="400" height="150" fill="url(#g)"/>
  <g>
    <rect x="150" y="22" width="210" height="118" rx="8" fill="#1d1a13" fill-opacity="0.1" stroke="#F1ECE2" stroke-opacity="0.14" stroke-width="1"/>

  </g>
  <g>
    <rect x="120" y="34" width="210" height="110" rx="8" fill="#1d1a13" fill-opacity="0.18" stroke="#F1ECE2" stroke-opacity="0.14" stroke-width="1"/>

  </g>
  <g>
    <rect x="88" y="48" width="214" height="96" rx="8" fill="#1d1a13" fill-opacity="1" stroke="#F1ECE2" stroke-opacity="0.3" stroke-width="1"/>
    <rect x="88" y="48" width="214" height="15" rx="0" fill="#F1ECE2" fill-opacity="0.3"/>
    <circle cx="101" cy="55.5" r="2.6" fill="#FF3D23" fill-opacity="1"/>
  </g>
  <rect x="102" y="78" width="120" height="7" rx="3.5" fill="#F1ECE2" fill-opacity=".55"/>
  <rect x="102" y="93" width="168" height="6" rx="3" fill="#F1ECE2" fill-opacity=".22"/>
  <rect x="102" y="106" width="92" height="6" rx="3" fill="#F1ECE2" fill-opacity=".22"/>
  <rect x="102" y="122" width="54" height="12" rx="6" fill="#FF3D23"/>

</svg>
